<?xml version="1.0" encoding="UTF-8" standalone="no"?>
<svg width="104px" height="120px" viewBox="0 0 104 120" version="1.1" xmlns="http://www.w3.org/2000/svg" xmlns:xlink="http://www.w3.org/1999/xlink" xmlns:sketch="http://www.bohemiancoding.com/sketch/ns">
    <!-- Generator: Sketch 3.1.1 (8761) - http://www.bohemiancoding.com/sketch -->
    <title>4. Animals 2</title>
    <desc>Created with Sketch.</desc>
    <defs></defs>
    <g id="Page-1" stroke="none" stroke-width="1" fill="none" fill-rule="evenodd" sketch:type="MSPage">
        <g id="4.-Animals-2" sketch:type="MSLayerGroup">
            <polygon id="Polygon" fill="#108462" sketch:type="MSShapeGroup" points="52 0 103.961524 30 103.961524 90 52 120 0.0384757729 90 0.0384757729 30 "></polygon>
            <path d="M101.999583,60.16625 C101.908333,87.7841667 79.445,110.092917 51.83125,110.000417 C24.2175,109.906667 1.90666667,87.44625 2,59.8308333 C2.09333333,32.2179167 24.5533333,9.90666667 52.1683333,10.0004167 C79.7841667,10.09375 102.093333,32.5541667 101.999583,60.16625 L101.999583,60.16625 Z" id="Shape" fill="#108462" sketch:type="MSShapeGroup"></path>
            <g id="Group" transform="translate(23.250000, 36.666667)" sketch:type="MSShapeGroup">
                <g>
                    <path d="M22.67375,40.11625 C22.67375,43.7233333 19.7483333,46.6454167 16.14125,46.6454167 C12.535,46.6454167 9.61,43.7233333 9.61,40.11625 C9.61,36.50875 12.535,33.585 16.14125,33.585 C19.7483333,33.585 22.67375,36.50875 22.67375,40.11625 L22.67375,40.11625 Z" id="Shape" fill="#FCB832"></path>
                    <path d="M35.4404167,23.7408333 C35.4404167,27.3458333 32.5166667,30.27 28.9091667,30.27 C25.3045833,30.27 22.3795833,27.34625 22.3795833,23.7408333 C22.3795833,20.1333333 25.3045833,17.2104167 28.9091667,17.2104167 C32.5166667,17.2104167 35.4404167,20.1333333 35.4404167,23.7408333 L35.4404167,23.7408333 Z" id="Shape" fill="#F58F45"></path>
                    <path d="M48.20875,40.11625 C48.20875,43.7233333 45.28625,46.6454167 41.6775,46.6454167 C38.0729167,46.6454167 35.1479167,43.7233333 35.1479167,40.11625 C35.1479167,36.50875 38.0729167,33.585 41.6775,33.585 C45.2858333,33.585 48.20875,36.50875 48.20875,40.11625 L48.20875,40.11625 Z" id="Shape" fill="#FCB832"></path>
                    <path d="M25.2633333,18.3208333 C21.9458333,20.6958333 11.59875,31.525 9.94166667,38.055 C9.10125,41.3770833 17.8066667,46.4320833 17.8066667,46.4320833 C17.8066667,46.4320833 24.6225,44.1116667 28.9091667,44.1116667 C33.1983333,44.1116667 40.0991667,46.4529167 40.0991667,46.4529167 C40.0991667,46.4529167 44.75625,38.4591667 47.7775,37.7758333 C45.7304167,31.7320833 35.4791667,19.9366667 32.09625,18.0370833 C30.8008333,17.3104167 26.4108333,17.5025 25.2633333,18.3208333 L25.2633333,18.3208333 Z" id="Shape" fill="#FCB832"></path>
                    <path d="M26.0158333,8.42833333 C26.0158333,13.0716667 23.0720833,16.8366667 19.4391667,16.8366667 C15.805,16.8366667 12.86,13.0716667 12.86,8.42833333 C12.86,3.785 15.805,0.0216666667 19.4391667,0.0216666667 C23.0720833,0.0216666667 26.0158333,3.785 26.0158333,8.42833333 L26.0158333,8.42833333 Z" id="Shape" fill="#FCB832"></path>
                    <path d="M13.26625,22.8791667 C13.26625,27.52375 10.3179167,31.2870833 6.685,31.2870833 C3.05208333,31.2870833 0.105,27.52375 0.105,22.8791667 C0.105,18.2370833 3.05208333,14.4720833 6.685,14.4720833 C10.3179167,14.4720833 13.26625,18.2370833 13.26625,22.8791667 L13.26625,22.8791667 Z" id="Shape" fill="#FCB832"></path>
                    <path d="M31.94375,8.42833333 C31.94375,13.0716667 34.89,16.8366667 38.5216667,16.8366667 C42.1558333,16.8366667 45.1025,13.0716667 45.1025,8.42833333 C45.1025,3.785 42.1558333,0.0216666667 38.5216667,0.0216666667 C34.8895833,0.0216666667 31.94375,3.785 31.94375,8.42833333 L31.94375,8.42833333 Z" id="Shape" fill="#FCB832"></path>
                    <ellipse id="Oval" fill="#FCB832" cx="50.7470833" cy="22.9904167" rx="6.58041667" ry="8.40708333"></ellipse>
                </g>
                <path d="M28.75,39.5116667 C22.0466667,39.5116667 16.51375,36.8279167 15.6545833,31.2870833 C15.57625,31.78 15.5329167,32.2816667 15.5329167,32.7925 C15.5329167,39.045 21.44875,44.11125 28.7495833,44.11125 C36.0458333,44.11125 41.965,39.0445833 41.965,32.7925 C41.965,32.2816667 41.9220833,31.78 41.8445833,31.2870833 C40.985,36.8279167 35.4533333,39.5116667 28.75,39.5116667 L28.75,39.5116667 Z" id="Shape" fill="#E0862C"></path>
                <path d="M18.6583333,1.21875 C18.6583333,1.21875 14.7254167,2.56625 14.7254167,8.19416667 C14.7254167,13.5920833 17.9258333,15.1704167 17.9258333,15.1704167 C17.9258333,15.1704167 17.07875,12.85625 17.07875,8.19416667 C17.07875,4.31916667 18.6583333,1.21875 18.6583333,1.21875 L18.6583333,1.21875 Z" id="Shape" fill="#FFEAB3"></path>
                <path d="M5.61333333,15.90375 C5.61333333,15.90375 1.67458333,17.2516667 1.67458333,22.8791667 C1.67458333,28.2783333 4.87875,29.8545833 4.87875,29.8545833 C4.87875,29.8545833 4.03416667,27.5433333 4.03416667,22.8791667 C4.03416667,19.00625 5.61333333,15.90375 5.61333333,15.90375 L5.61333333,15.90375 Z" id="Shape" fill="#FFEAB3"></path>
                <path d="M37.4083333,1.21875 C37.4083333,1.21875 33.4716667,2.56625 33.4716667,8.19416667 C33.4716667,13.5920833 36.6745833,15.1704167 36.6745833,15.1704167 C36.6745833,15.1704167 35.8304167,12.85625 35.8304167,8.19416667 C35.8308333,4.31916667 37.4083333,1.21875 37.4083333,1.21875 L37.4083333,1.21875 Z" id="Shape" fill="#FFEAB3"></path>
                <path d="M49.7475,16.0133333 C49.7475,16.0133333 45.8108333,17.3620833 45.8108333,22.98875 C45.8108333,28.3879167 49.01375,29.9641667 49.01375,29.9641667 C49.01375,29.9641667 48.1679167,27.6529167 48.1679167,22.98875 C48.1679167,19.11375 49.7475,16.0133333 49.7475,16.0133333 L49.7475,16.0133333 Z" id="Shape" fill="#FFEAB3"></path>
            </g>
        </g>
    </g>
</svg>